<?xml version="1.0" standalone="no"?>
<!DOCTYPE svg PUBLIC "-//W3C//DTD SVG 20010904//EN"
 "http://www.w3.org/TR/2001/REC-SVG-20010904/DTD/svg10.dtd">
<svg version="1.0" xmlns="http://www.w3.org/2000/svg"
 width="1024.000000pt" height="1024.000000pt" viewBox="0 0 1024.000000 1024.000000"
 preserveAspectRatio="xMidYMid meet">
<metadata>
Created by potrace 1.16, written by Peter Selinger 2001-2019
</metadata>
<g transform="translate(0.000000,1024.000000) scale(0.100000,-0.100000)"
fill="#000000" stroke="none">
<path d="M0 5120 l0 -5120 5120 0 5120 0 0 5120 0 5120 -5120 0 -5120 0 0
-5120z m6023 2921 c199 -27 298 -60 410 -135 107 -71 177 -148 228 -251 49
-100 67 -174 76 -296 l6 -96 48 -18 c96 -34 204 -118 263 -204 70 -100 94
-260 57 -379 -46 -151 -187 -281 -333 -307 l-38 -7 0 -579 0 -579 48 0 c119 0
333 -83 447 -175 78 -61 125 -113 184 -202 70 -103 93 -169 155 -448 31 -138
63 -280 72 -316 l15 -65 62 -13 c120 -24 254 -110 333 -212 61 -79 118 -205
84 -184 -5 3 -10 1 -10 -5 0 -6 -4 -8 -10 -5 -5 3 -10 0 -11 -7 0 -7 -4 -4 -9
7 -5 11 -9 15 -9 10 -1 -16 -94 -5 -108 14 -12 15 -13 14 -7 -1 12 -34 -11
-17 -45 33 -71 104 -175 157 -327 166 l-90 6 -33 146 c-146 654 -153 681 -209
766 -76 118 -178 204 -301 255 -94 38 -155 50 -303 57 l-128 6 0 742 0 742 83
5 c134 7 246 71 300 173 30 56 30 164 0 220 -28 53 -81 107 -135 138 -37 22
-177 83 -230 101 -16 5 -18 22 -18 161 0 169 -13 233 -66 317 -64 101 -193
184 -329 212 -212 44 -336 50 -975 51 -581 0 -626 -1 -810 -23 -258 -31 -333
-46 -405 -81 -101 -50 -186 -147 -228 -259 -20 -53 -22 -80 -24 -352 -2 -162
-3 -316 -3 -342 l0 -46 -138 3 c-94 2 -147 -1 -167 -9 -189 -80 -181 -374 12
-467 37 -18 69 -23 169 -27 l124 -5 0 -627 0 -627 -131 -7 c-72 -4 -164 -16
-205 -26 -142 -36 -267 -115 -356 -225 -79 -97 -103 -158 -157 -400 -41 -180
-81 -355 -126 -552 -5 -20 -12 -23 -58 -23 -135 0 -261 -44 -328 -114 -19 -20
-49 -62 -66 -93 -18 -32 -33 -52 -33 -45 0 6 -12 12 -26 12 -14 0 -35 5 -47
11 -31 17 -79 13 -95 -8 -12 -16 -13 -14 -7 17 23 110 131 254 241 320 70 42
176 79 226 80 43 0 44 1 83 190 76 367 105 474 149 565 52 105 131 204 219
275 121 98 353 190 479 190 l48 0 -2 453 -3 452 -30 3 c-142 14 -286 118 -357
257 -138 266 33 595 319 613 l71 5 4 251 c4 240 5 254 31 332 71 214 254 384
478 443 65 17 354 55 494 65 28 2 343 2 700 1 609 -2 660 -3 808 -24z m-200
-378 l67 -6 0 -187 0 -187 -107 -12 c-737 -83 -1275 -180 -1703 -306 -63 -18
-122 -36 -130 -39 -13 -5 -15 27 -18 243 -4 238 -3 250 18 300 39 89 122 144
235 156 33 3 116 12 185 21 69 8 141 16 160 17 67 7 1225 7 1293 0z m303 -618
c163 -42 374 -107 374 -116 0 -5 -6 -9 -13 -9 -21 0 -362 -136 -644 -256
l-102 -43 -263 126 c-145 69 -301 144 -348 166 l-85 40 37 8 c33 8 523 73 728
97 137 17 212 14 316 -13z m-1270 -249 c110 -51 307 -146 439 -211 340 -166
424 -205 445 -205 16 0 81 28 435 187 55 25 110 49 123 54 l22 9 0 -795 0
-795 -428 0 -428 0 0 90 c1 134 25 124 -335 128 -372 4 -349 12 -349 -123 l0
-95 -425 0 -425 0 0 824 0 825 108 34 c149 48 559 159 608 166 7 0 101 -41
210 -93z m-748 -1976 l72 0 0 -474 c0 -423 -2 -475 -16 -480 -9 -3 -63 -6
-120 -6 -77 0 -104 3 -104 13 0 6 -1 200 -2 430 -2 272 0 417 7 418 6 0 4 3
-2 6 -8 3 -13 23 -13 48 0 49 11 56 70 49 19 -2 68 -4 108 -4z m1552 -10 c0
-4 -46 -48 -102 -96 -57 -49 -132 -116 -168 -150 -36 -34 -101 -93 -145 -131
-44 -38 -86 -77 -94 -86 -7 -10 -19 -17 -25 -17 -11 0 -188 152 -311 269 -39
36 -109 100 -157 143 l-87 76 545 0 c299 0 544 -4 544 -8z m650 -472 l0 -481
-117 7 c-64 3 -118 7 -119 9 -1 1 -4 215 -6 475 l-3 472 123 0 122 0 0 -482z
m-2606 -92 l-7 -536 -379 0 c-322 0 -378 2 -378 14 0 17 70 344 132 611 45
199 60 236 121 302 100 108 187 144 372 152 72 4 134 3 138 0 4 -3 5 -247 1
-543z m3116 528 c30 -9 78 -29 106 -45 64 -36 159 -135 184 -191 10 -24 48
-178 85 -343 36 -165 74 -340 85 -388 11 -49 20 -90 20 -93 0 -2 -171 -4 -380
-4 l-380 0 0 547 0 546 113 -6 c62 -4 137 -14 167 -23z m-2097 -414 l263 -235
-37 -105 c-21 -58 -55 -150 -76 -205 l-39 -100 -211 -3 -210 -2 -6 67 c-3 38
-6 248 -7 467 l-1 400 30 -25 c17 -13 149 -130 294 -259z m1117 -190 l0 -460
-210 2 -211 3 -50 125 c-27 69 -62 161 -78 205 l-29 80 145 130 c337 302 418
374 426 375 4 0 7 -207 7 -460z m662 -692 c31 -21 42 -49 33 -78 -4 -12 -51
-73 -106 -137 -54 -64 -99 -121 -99 -126 0 -6 47 -73 105 -149 106 -141 117
-166 94 -210 -15 -27 -71 -49 -108 -42 -34 7 -79 53 -186 189 l-70 90 -5 -110
c-6 -123 -10 -136 -46 -156 -44 -23 -95 -15 -126 20 l-28 31 0 321 0 321 29
29 c39 38 97 40 138 5 26 -23 28 -30 33 -121 l5 -98 99 113 c54 62 112 118
128 125 36 14 74 9 110 -17z m-3950 12 c13 -6 61 -65 107 -131 l83 -121 65 99
c93 140 117 163 169 163 34 0 49 -6 73 -31 l31 -31 0 -319 c0 -355 -1 -358
-65 -379 -42 -14 -77 -5 -107 27 -21 23 -23 34 -28 176 -5 150 -5 152 -22 121
-52 -95 -117 -127 -165 -83 -14 13 -37 45 -52 71 -15 27 -31 45 -34 41 -4 -3
-7 -73 -7 -155 0 -145 -1 -150 -25 -173 -34 -35 -102 -35 -142 -1 l-28 24 -3
313 c-2 224 1 321 9 341 20 49 88 72 141 48z m988 -16 c61 -28 105 -67 138
-123 23 -40 27 -57 27 -126 0 -92 -21 -141 -79 -193 -20 -17 -36 -34 -36 -36
0 -3 20 -36 44 -73 52 -82 59 -103 47 -136 -13 -33 -44 -50 -93 -50 -51 0 -86
34 -146 141 -25 45 -51 81 -56 79 -6 -2 -12 -38 -14 -81 -3 -91 -18 -120 -68
-136 -43 -14 -84 0 -114 38 -19 23 -20 42 -20 341 0 404 -11 383 200 378 100
-3 134 -7 170 -23z m881 -3 l29 -29 0 -259 c0 -238 -2 -262 -21 -303 -25 -56
-62 -95 -114 -123 -57 -31 -183 -31 -240 0 -102 54 -150 179 -91 238 53 53
109 45 151 -22 34 -54 60 -63 96 -34 l24 19 1 219 c0 120 1 231 2 246 5 75
106 104 163 48z m290 0 l29 -29 0 -225 c0 -217 1 -225 23 -258 37 -55 95 -63
146 -22 33 27 42 82 40 268 -2 249 -2 243 26 270 18 19 35 25 69 25 37 0 48
-5 70 -31 l26 -31 0 -238 c0 -220 -2 -244 -21 -296 -43 -114 -136 -174 -270
-174 -130 0 -225 58 -278 170 -26 55 -26 56 -26 303 l0 249 28 24 c41 35 99
33 138 -5z m691 -4 c18 -18 83 -97 143 -175 l110 -143 5 152 c5 150 5 151 33
175 20 17 40 24 72 24 36 0 47 -5 69 -31 25 -30 26 -34 28 -192 5 -483 5 -483
-20 -510 -13 -14 -37 -28 -54 -31 -54 -11 -89 16 -191 152 -52 70 -111 145
-131 167 l-35 40 -1 -143 c0 -106 -4 -150 -15 -171 -31 -60 -128 -59 -165 2
-19 30 -20 53 -20 344 l0 311 26 31 c22 26 33 31 70 31 36 0 49 -6 76 -33z
m1309 23 c10 -6 44 -45 74 -88 30 -42 63 -88 73 -101 l19 -23 67 95 c36 53 76
103 88 112 44 30 139 9 153 -35 6 -18 9 -17 39 15 l33 35 217 0 218 0 29 -29
c29 -29 35 -53 23 -86 -4 -9 -87 -114 -185 -233 l-179 -217 161 -5 161 -5 24
-28 c31 -36 32 -87 1 -122 l-22 -27 -285 -2 c-157 -1 -295 1 -308 6 -12 4 -29
23 -38 42 -16 33 -16 35 7 74 23 38 234 292 327 393 23 25 42 49 42 53 0 3
-42 6 -94 6 -87 0 -97 2 -125 26 -17 14 -31 33 -32 42 0 14 -2 14 -6 2 -6 -14
-90 -136 -176 -256 l-37 -51 0 -140 c0 -128 -2 -143 -21 -167 -43 -55 -116
-54 -159 1 -18 23 -20 40 -20 163 l0 138 -73 103 c-40 57 -91 128 -115 157
-50 64 -53 93 -13 133 23 23 38 29 71 29 23 0 50 -5 61 -10z m-2860 -609 c56
-57 28 -134 -54 -148 -31 -5 -40 -1 -67 25 -39 40 -41 85 -3 124 37 39 84 38
124 -1z"/>
<path d="M4227 6622 c-23 -25 -24 -173 -2 -192 19 -15 654 -15 670 1 5 6 10
49 10 96 -1 72 -4 87 -20 99 -15 11 -80 14 -330 14 -289 0 -313 -1 -328 -18z"/>
<path d="M4472 6349 c-91 -45 -141 -124 -142 -222 0 -74 28 -135 87 -187 56
-49 99 -63 172 -58 90 7 169 57 208 132 25 48 29 138 8 192 -51 135 -211 203
-333 143z m80 -66 c48 -46 46 -116 -3 -162 -17 -15 -36 -21 -70 -21 -41 0 -51
4 -79 36 -27 32 -31 42 -25 72 9 48 33 82 70 98 38 17 73 10 107 -23z"/>
<path d="M5565 6351 c-86 -40 -155 -142 -155 -230 0 -90 61 -184 145 -222 53
-24 147 -24 200 0 52 23 103 74 126 126 22 48 25 142 5 189 -51 122 -208 190
-321 137z"/>
<path d="M4593 5691 c-37 -23 -48 -68 -41 -181 5 -94 23 -112 113 -118 96 -6
112 0 120 48 l7 40 65 0 c60 0 66 -2 91 -31 37 -45 79 -59 173 -59 92 0 139
17 172 62 19 26 26 28 88 28 l67 0 6 -32 c10 -52 21 -58 101 -58 64 0 77 3
104 26 l31 26 0 108 0 108 -31 26 -31 26 -501 0 c-479 0 -503 -1 -534 -19z"/>
<path d="M3371 3243 c1 -38 4 -76 7 -85 6 -25 52 -23 93 5 28 19 35 30 37 64
4 54 -30 83 -95 83 l-44 0 2 -67z"/>
</g>
</svg>
